<?xml version="1.0" encoding="UTF-8"?>
<svg xmlns="http://www.w3.org/2000/svg" viewBox="0 0 595.28 78" role="img" aria-label="Horizon">
  <path fill="currentColor" d="M36.16,77.77V21.69c0-4.06-2.84-6.5-9.75-6.5V4.63h37.79V15.19c-6.09,0-8.53,2.44-8.53,6.5v17.88h24.38V21.69c0-4.06-2.03-6.5-8.53-6.5V4.63h37.38V15.19c-6.09,0-9.35,2.44-9.35,6.5v56.07h-19.5v-26.41h-24.38v26.41h-19.5Z"/>
  <path fill="currentColor" d="M127.59,77.77s-11.38-9.35-11.38-32.91S131.65,1.78,154,1.78s37.79,19.91,37.79,43.07-11.78,32.91-11.78,32.91h-18.69s8.94-5.69,8.94-32.91c0-15.85-2.84-31.69-16.25-31.69s-16.66,15.85-16.66,31.69c0,27.63,9.35,32.91,9.35,32.91h-19.1Z"/>
  <path fill="currentColor" fill-rule="evenodd" d="M259.24,57.04c2.84,8.13,2.84,17.07,6.5,17.07,2.84,0,2.84-10.16,2.84-10.16h10.16s-.41,6.5-.81,9.75c-.41,2.84-1.22,4.06-1.22,4.06h-29.26s-2.03-3.66-3.25-12.6c-.41-4.06-1.22-9.35-3.25-11.78-2.03-2.03-7.72-2.03-13.41-2.03v26.41h-19.5V21.69c0-4.06-2.03-6.5-8.53-6.5V4.63h40.63c15.03,.41,28.85,7.72,28.85,21.94,0,13.41-14.22,19.1-18.28,19.91,4.88,3.25,6.91,6.5,8.53,10.57h0Zm-31.69-16.25V21.69s-.41-6.91,8.53-6.91,12.19,3.66,12.19,11.78c0,11.78-5.28,14.22-20.72,14.22h0Z"/>
  <path fill="currentColor" d="M284.84,15.19V4.63h36.57V15.19c-6.5,0-8.53,2.44-8.53,6.5v56.07h-19.5V21.69c0-4.06-2.03-6.5-8.53-6.5h0Z"/>
  <path fill="currentColor" d="M332.79,77.77s31.69-63.79,31.29-63.79c-21.54-1.22-24.38,13.41-23.97,19.91h-6.91V4.63h56.48v6.91l-32.51,66.23h14.63c8.13-2.44,12.19-14.63,12.19-21.13h7.31v21.13h-58.51Z"/>
  <path fill="currentColor" d="M411.61,77.77s-11.38-9.35-11.38-32.91S415.68,1.78,438.03,1.78s37.79,19.91,37.79,43.07-11.78,32.91-11.78,32.91h-18.69s8.94-5.69,8.94-32.91c0-15.85-2.85-31.69-16.25-31.69s-16.66,15.85-16.66,31.69c0,27.63,9.34,32.91,9.34,32.91h-19.1Z"/>
  <path fill="currentColor" d="M490.04,77.77V21.69c0-4.06-2.03-6.5-8.53-6.5V4.63h26.82l39.01,49.98V21.69c0-4.06-2.03-6.5-8.53-6.5V4.63h28.04V15.19c-6.5,0-8.53,2.44-8.53,6.5v56.07h-20.72l-35.35-47.14v47.14h-12.19Z"/>
</svg>
